<svg xmlns="http://www.w3.org/2000/svg" viewBox="0 0 59.975 59.956" width="79.967" height="79.941" xmlns:v="https://vecta.io/nano"><defs><filter id="A" x="0" y="0" width="1" height="1" color-interpolation-filters="sRGB"><feColorMatrix values="1 0 0 0 0 0 1 0 0 0 0 0 1 0 0 -197.951 -666.419 -67.1635 956.386 0 "/><feComposite operator="arithmetic" k2="0" k1="0" k3="0" k4="0"/></filter></defs><path d="M-2.007-2.005h64v64h-64z" fill="#fff" filter="url(#A)"/><path d="M23.493.745c9.97-2.37 21.21 1.03 28.15 8.59 7.44 7.49 10.23 19.32 7.01 29.37-2.08 7.31-7.32 13.54-13.83 17.36-11.09 6.35-25.64 4.85-34.97-3.93-7.49-6.6-11.18-17.26-9.42-27.07 1.86-11.85 11.32-21.85 23.06-24.32z"/><path d="M24.473 2.535c8.09-1.69 16.81.51 23.19 5.77 7.69 6.22 11.66 16.39 9.98 26.18-1.89 12.2-12.28 22.12-24.59 23.35-11.4 1.38-22.64-4.84-27.92-14.95-4.67-8.84-4.13-19.98 1.49-28.26 4.08-6.21 10.56-10.62 17.85-12.09z" fill="red"/><path d="M24.493 9.745c4.57-1.24 9.42-.87 13.78.95 7.71 3.23 12.71 10.97 12.72 19.3.03 9.93-7.2 18.93-17.06 20.6-10.93 2.2-21.99-4.92-24.37-15.83-2.63-10.84 4.1-22.26 14.93-25.02z"/><path d="M33.473 13.475c6.77 1.64 9.09 11.57 4.32 16.39-3.36 3.43-7.21 5.99-9.7 10.26l12.28.02.02 6.44c-6.96 0-13.92.01-20.88-.01.5-2.85.58-5.48 2.01-8.03 2.45-4.76 7.48-8.53 10.52-12.75 1.21-2.34.64-7.09-2.94-6.75-2.8 1.69-2.31 4.1-2.83 6.94h-7.24c.51-3.82.78-7.4 3.7-10.25 2.85-2.84 7.01-3.06 10.74-2.26z" fill="#ffce00"/></svg>