<svg xmlns="http://www.w3.org/2000/svg" viewBox="0 0 59.957 59.97" width="79.943" height="79.96" xmlns:v="https://vecta.io/nano"><defs><filter id="A" x="0" y="0" width="1" height="1" color-interpolation-filters="sRGB"><feColorMatrix values="1 0 0 0 0 0 1 0 0 0 0 0 1 0 0 -141.737 -477.172 -48.0907 647.975 0 "/><feComposite operator="arithmetic" k2="0" result="B" k1="0" k3="0" k4="0"/><feColorMatrix values="0 0 0 -1 0 0 0 0 -1 0 0 0 0 -1 0 0 0 0 1 0"/><feColorMatrix values="1 0 0 0 0 0 1 0 0 0 0 0 1 0 0 -141.737 -477.172 -48.0907 647.975 0 " in="B"/><feComposite operator="arithmetic" k2="0" k1="0" k3="0" k4="0"/></filter></defs><path d="M-1.994-2.006h64v64h-64z" fill="#fff" filter="url(#A)"/><path d="M23.506.754c10.21-2.45 21.71 1.2 28.64 9.1 10.41 11 10.42 29.28 0 40.28-8.12 9.2-21.77 12.34-33.13 7.74-12.64-4.87-20.69-18.44-18.72-31.88 1.56-12.24 11.12-22.71 23.21-25.24z"/><path d="M24.476 2.534c7.58-1.6 15.88.27 22.08 4.91 8.39 6.09 12.87 16.78 11.1 27.03-1.89 12.21-12.28 22.13-24.59 23.36-11.4 1.38-22.63-4.84-27.92-14.95-4.66-8.84-4.13-19.98 1.49-28.26 4.08-6.21 10.56-10.62 17.84-12.09z" fill="red"/><path d="M30.006 8.924c8.02-.11 15.63 4.8 19.04 12.02 3 6.14 2.6 13.4-.61 19.38l-31.57-26.87c3.88-2.83 8.27-4.62 13.14-4.53zm-18.44 10.74l31.59 26.86c-3.89 2.84-8.28 4.63-13.15 4.54-8.02.11-15.63-4.8-19.04-12.02-3-6.14-2.6-13.4.6-19.38z"/></svg>