<svg xmlns="http://www.w3.org/2000/svg" viewBox="0 0 59.977 59.976" width="79.969" height="79.968" xmlns:v="https://vecta.io/nano"><defs><filter id="A" x="0" y="0" width="1" height="1" color-interpolation-filters="sRGB"><feColorMatrix values="1 0 0 0 0 0 1 0 0 0 0 0 1 0 0 -197.951 -666.419 -67.1635 956.386 0 "/><feComposite operator="arithmetic" k2="0" k1="0" k3="0" k4="0"/></filter></defs><path d="M-1.996-1.989h64v64h-64z" fill="#fff" filter="url(#A)"/><path d="M24.444.551c13.11-2.64 26.85 4.43 32.57 16.46 5.65 11.5 3.05 25.95-6.36 34.66-9.35 9.2-24.31 10.93-35.62 4.32-10.6-6.15-16.71-18.57-14.63-30.72 1.9-12.31 11.79-22.48 24.04-24.72z"/><path d="M25.314 2.391c3.63-.62 7.4-.49 10.99.33 12.84 2.88 22.32 15.11 21.69 28.3-.35 13.36-10.9 25.02-24.15 26.73-12.43 1.86-24.85-5.38-29.66-16.91-3.53-8.25-2.75-18.02 2.05-25.59 4.2-6.77 11.22-11.51 19.08-12.86z" fill="red"/><path d="M27.324 9.221c6.36-.84 13.01 1.38 17.54 5.93 7.15 7.06 8.12 18.82 2.28 26.99-5.71 8.27-17.08 11.14-26.13 6.84-8.74-3.99-13.57-13.97-11.52-23.33 1.73-8.67 9.06-15.39 17.83-16.43z"/><path d="M39.574 19.461c1.12 3.88-.67 6.6-2.82 9.62 4.12 3.97 5.38 11.57 1.14 15.84-3.75 3.04-10.45 3.18-14.53.72-3.29-2.08-3.51-5.75-4.3-9.19 2.38-.04 4.75-.02 7.13-.01 1.11 1.61 1.16 5.04 3.77 4.59 3.21-.1 3.52-4.13 2.57-6.46-.72-3.13-4.41-2.37-6.82-2.95-.06-1.6-.08-3.2-.07-4.8 2.02-.3 4.01-.57 5.95-1.25 1.15-1.97 1.95-6.53-1.58-6.18-1.7-.38-2.75 2.16-3.68 3.22l-6.53-.06c.89-3.2 1.76-6.09 4.68-8.04 5.17-3.09 13.16-1.22 15.09 4.95z" fill="#fc0"/></svg>