<svg xmlns="http://www.w3.org/2000/svg" viewBox="0 0 60.015 60.002" width="80.02" height="80.003" xmlns:v="https://vecta.io/nano"><defs><filter id="A" x="0" y="0" width="1" height="1" color-interpolation-filters="sRGB"><feColorMatrix values="1 0 0 0 0 0 1 0 0 0 0 0 1 0 0 -197.951 -666.419 -67.1635 956.386 0 "/><feComposite operator="arithmetic" k2="0" k1="0" k3="0" k4="0"/></filter></defs><path d="M-1.988-1.998h64v64h-64z" fill="#fff" filter="url(#A)"/><path d="M23.522.742c6.77-1.63 14.06-.49 20.25 2.6 12.15 6.25 18.82 20.59 15.31 33.89-3.11 13.2-15.52 22.84-29.08 22.77-14.78.09-27.86-11.32-29.7-26-2.24-15.16 8.24-30.12 23.22-33.26z"/><path d="M24.492 2.532c3.86-.79 7.93-.7 11.77.17 12.87 2.86 22.38 15.11 21.74 28.32-.34 13.27-10.81 24.92-23.96 26.69-11.98 1.88-23.95-4.68-29.23-15.49-3.85-7.86-3.75-17.36.34-25.1 3.9-7.45 11.08-12.92 19.34-14.59z" fill="red"/><path d="M24.502 9.742c10.23-2.82 21.37 2.69 25.08 12.67 4.1 10.39-.99 22.69-11.36 26.91-10.77 4.65-23.77-.77-27.81-11.81-4.46-11.46 2.17-24.68 14.09-27.77z"/><path d="M28.942 13.822c2-.2 4.05-.22 6.07-.3v33.88l-8.38-.02-.01-23.37c-1.49 0-2.98-.01-4.47-.01l-.04-6.44c2.43-.97 4.61-2.36 6.83-3.74z" fill="#ffce00"/></svg>