<svg preserveAspectRatio="xMidYMid" viewBox="0 0 1073 398" xmlns="http://www.w3.org/2000/svg"><defs><linearGradient id="b" x1="536.5" x2="536.5" y1="354.31" y2="139.81" gradientUnits="userSpaceOnUse"><stop stop-color="#616161" stop-opacity=".996" offset="0"/><stop stop-color="#302e2e" offset="1"/></linearGradient><linearGradient id="a" x1="523.64" x2="523.64" y1="122.03" y2="35.469" gradientUnits="userSpaceOnUse"><stop stop-color="#616161" stop-opacity=".996" offset="0"/><stop stop-color="#312f2e" offset="1"/></linearGradient><style>.cls-4{fill:#fff;fill-rule:evenodd}</style></defs><path d="M124 32v94h88l10-18 12 12-65 91h-1l-68-93H5v274l99-57v-61l35 48h58l35-48v71h298l84-85h-88l68-69h-45l27-28 40 40h41v133l100 57V203h41l4-5v147h100v-52h66v43l100 57V172l-54-54H907l20-27-18-24 36-36H783l-12 12V31h-81v22l-26-22h-66v50h-27V9l-50 29v80h-42l37-37h-76V9l-38 22H275v50h-9V38L216 9v29l-4-6h-88z" fill-rule="evenodd" stroke="#fff" stroke-width="4" fill="#fff"/><path d="M124 32v94h88l10-18 12 12-65 91h-1l-68-93H5v274l99-57v-61l35 48h58l35-48v71h298l84-85h-88l68-69h-45l27-28 40 40h41v133l100 57V203h41l4-5v147h100v-52h66v43l100 57V172l-54-54H907l20-27-18-24 36-36H783l-12 12V31h-81v22l-26-22h-66v50h-27V9l-50 29v80h-42l37-37h-76V9l-38 22H275v50h-9V38L216 9v29l-4-6h-88z" fill="#060000" fill-rule="evenodd"/><path d="M990.8 323.01v-52.7H879.51v52.39h-55.18V180.72l41.54-40.92h138.57l41.54 40.92v173.6l-55.18-31.31zm0-142.29H879.51v49.29H990.8v-49.29zm-256.06 0v173.6l-55.18-31.62V180.72h-54.25L584.7 139.8h244.9l-40.61 40.92h-54.25zm-329.84 0v32.24h136.71l-37.2 37.2H404.9v31.62h156.86l-40.92 40.92H349.72V139.8h218.55l-40.61 40.92H404.9zm-150.34 25.11l-68.51 94.24H150.4l-68.2-94.24V322.7l-55.18 31.62V139.8h62.116l79.321 109.08 78.915-109.08h62.368v182.9h-55.18V205.83z" stroke="url(#b)" stroke-width="12" fill-rule="evenodd" fill="#fff"/><path class="cls-4" d="M990.8 323.01v-52.7H879.51v52.39h-55.18V180.72l41.54-40.92h138.57l41.54 40.92v173.6l-55.18-31.31zm0-142.29H879.51v49.29H990.8v-49.29zm-256.06 0v173.6l-55.18-31.62V180.72h-54.25L584.7 139.8h244.9l-40.61 40.92h-54.25zm-329.84 0v32.24h136.71l-37.2 37.2H404.9v31.62h156.86l-40.92 40.92H349.72V139.8h218.55l-40.61 40.92H404.9zm-150.34 25.11l-68.51 94.24H150.4l-68.2-94.24V322.7l-55.18 31.62V139.8h62.116l79.321 109.08 78.915-109.08h62.368v182.9h-55.18V205.83z"/><path d="M845.26 60.988l-4.687 5.503 4.687 5.833h49.05l14.172 18.855-14.606 19.731h-74.558l14.274-14.388h48.925l4.577-5.316-4.633-5.802h-48.99l-14.153-19.019L833.924 46.6h74.556l-14.388 14.388H845.26zm-34.989 31.501v18.421h-19.402V95.287L776.58 80.998l-20.7 19.553v10.522l-19.402 10.955V46.6h19.402v31.61l33.463-31.61h23.014l-24.516 23.459 22.43 22.43zm-145.95-19.097v37.513l-19.402 11.123V46.6h13.843l46.434 38.368V46.6h19.402v64.31h-14.7l-45.577-37.518zM613.528 46.6h19.402v64.403l-19.402 11.025V46.6zm-77.715 64.31V46.692l19.402-11.21v61.04h55.154l-14.388 14.388h-60.168zm-130.72 0V46.692l19.402-11.21v61.04h55.154l-14.388 14.388h-60.168zM340.35 60.988v11.336h48.069l-13.08 13.08H340.35v11.118h55.154l-14.388 14.388h-60.168V46.6h76.845l-14.279 14.388H340.35zm-94.392 49.922l-14.606-14.606V35.482l19.402 11.206v49.834h39.131V46.6h19.402v49.678l-14.606 14.632h-48.723zm-107.14 0V46.6h64.419l18.203 32.264-18.203 32.046h-64.419zm51.513-49.922H158.22v35.534h32.129l10.049-17.691-10.067-17.843z" stroke="url(#a)" stroke-width="8" fill-rule="evenodd" fill="#fff"/><path class="cls-4" d="M845.26 60.988l-4.687 5.503 4.687 5.833h49.05l14.172 18.855-14.606 19.731h-74.558l14.274-14.388h48.925l4.577-5.316-4.633-5.802h-48.99l-14.153-19.019L833.924 46.6h74.556l-14.388 14.388H845.26zm-34.989 31.501v18.421h-19.402V95.287L776.58 80.998l-20.7 19.553v10.522l-19.402 10.955V46.6h19.402v31.61l33.463-31.61h23.014l-24.516 23.459 22.43 22.43zm-145.95-19.097v37.513l-19.402 11.123V46.6h13.843l46.434 38.368V46.6h19.402v64.31h-14.7l-45.577-37.518zM613.528 46.6h19.402v64.403l-19.402 11.025V46.6zm-77.715 64.31V46.692l19.402-11.21v61.04h55.154l-14.388 14.388h-60.168zm-130.72 0V46.692l19.402-11.21v61.04h55.154l-14.388 14.388h-60.168zM340.35 60.988v11.336h48.069l-13.08 13.08H340.35v11.118h55.154l-14.388 14.388h-60.168V46.6h76.845l-14.279 14.388H340.35zm-94.392 49.922l-14.606-14.606V35.482l19.402 11.206v49.834h39.131V46.6h19.402v49.678l-14.606 14.632h-48.723zm-107.14 0V46.6h64.419l18.203 32.264-18.203 32.046h-64.419zm51.513-49.922H158.22v35.534h32.129l10.049-17.691-10.067-17.843z"/></svg>